<svg id="Groupe_694" data-name="Groupe 694" xmlns="http://www.w3.org/2000/svg" xmlns:xlink="http://www.w3.org/1999/xlink" width="176" height="79.206" viewBox="0 0 176 79.206">
  <defs>
    <clipPath id="clip-path">
      <path id="Tracé_149" data-name="Tracé 149" d="M0-61.61H176v-79.206H0Z" transform="translate(0 140.816)" fill="none"/>
    </clipPath>
  </defs>
  <path id="Tracé_146" data-name="Tracé 146" d="M219.574-58.1H241.58v-7.2H219.574Z" transform="translate(-96.068 107.778)"/>
  <path id="Tracé_147" data-name="Tracé 147" d="M219.574-7.148H241.58v-7.2H219.574Z" transform="translate(-96.068 85.485)"/>
  <g id="Groupe_153" data-name="Groupe 153" transform="translate(0 0)" clip-path="url(#clip-path)">
    <g id="Groupe_152" data-name="Groupe 152" transform="translate(0 0)">
      <path id="Tracé_148" data-name="Tracé 148" d="M-121.867-.326V34.708h5.28V12.273l7.264,22.436h5.671V-.326h-5.28V23.219L-115.939-.326Zm-10.141,27.016a2.909,2.909,0,0,1-.879,2.136,2.911,2.911,0,0,1-2.138.881,2.952,2.952,0,0,1-2.151-.881,2.882,2.882,0,0,1-.894-2.136V7.524a2.885,2.885,0,0,1,.894-2.138,2.957,2.957,0,0,1,2.151-.879,2.916,2.916,0,0,1,2.138.879,2.913,2.913,0,0,1,.879,2.138ZM-140.781,1.7a8.06,8.06,0,0,0-2.458,5.936V26.745a8.117,8.117,0,0,0,2.431,5.923,8.014,8.014,0,0,0,5.922,2.458,8.1,8.1,0,0,0,5.923-2.444,8.064,8.064,0,0,0,2.459-5.937V7.636a8.1,8.1,0,0,0-2.446-5.923,8.058,8.058,0,0,0-5.936-2.459,8.065,8.065,0,0,0-5.9,2.446m-12.4,18.172V34.708h5.281V-.3h-5.281V14.564h-6.369V-.3h-5.281V34.708h5.281V19.872Zm-26.763,14.837h5.28V5.01h5.588V-.3h-16.484V5.01h5.616Zm-12.685-13.187h-3.911l1.956-13.8Zm.784,5.14,1.235,8.046h5.553L-190.927-.3h-7.264l-5.951,35.007h5.5l1.284-8.046Zm-22.77-13.411a2.954,2.954,0,0,1-.88,2.151,2.884,2.884,0,0,1-2.137.894h-3.185V5.093h3.185q3.017,0,3.017,3.046ZM-226.1-.3V34.708h5.28V21.521h3.52l3.2,13.187h5.711L-212.3,19.425a8.183,8.183,0,0,0,2.822-6.286V8.055a8.836,8.836,0,0,0-1.816-5.923Q-213.361-.3-217.776-.3Zm-12.013,21.82h-3.911l1.956-13.8Zm.784,5.14,1.235,8.046h5.551L-236.41-.3h-7.263l-5.952,35.007h5.5l1.283-8.046Zm-35.929-13.913,5.113,21.96h4.246l4.582-22.016V34.708h5.28V-.326h-7.28l-4.724,25.167L-270.962-.326h-7.577V34.708h5.28Z" transform="translate(278.539 0.746)"/>
    </g>
  </g>
  <path id="Tracé_150" data-name="Tracé 150" d="M219.574-32.625H241.58v-7.2H219.574Z" transform="translate(-96.068 96.632)"/>
  <g id="Groupe_154" data-name="Groupe 154" transform="translate(0.032 42.554)">
    <path id="Tracé_151" data-name="Tracé 151" d="M-16.411,0l-7.033,25.2h-.087L-30.476,0h-7.032l10.09,35.848h7.731L-9.334,0Z" transform="translate(37.508)" fill="#fff"/>
  </g>
  <g id="Groupe_155" data-name="Groupe 155" transform="translate(24.704 42.554)">
    <path id="Tracé_152" data-name="Tracé 152" d="M-14.645,0-2.982,35.848H-10.1l-2.358-7.983H-24.124l-2.446,7.983h-6.9L-21.677,0Zm.393,21.991L-18.183,8.837h-.088l-4.062,13.154Z" transform="translate(33.472)" fill="#fff"/>
  </g>
  <g id="Groupe_156" data-name="Groupe 156" transform="translate(58.826 42.554)">
    <path id="Tracé_153" data-name="Tracé 153" d="M-5.3,0,7.716,24.05H7.8V0h6.422V35.848H7.367l-12.974-24h-.087v24h-6.421V0Z" transform="translate(12.114)" fill="#fff"/>
  </g>
  <g id="Groupe_157" data-name="Groupe 157" transform="translate(91.193 42.554)">
    <path id="Tracé_154" data-name="Tracé 154" d="M-5.3,0,7.717,24.05H7.8V0h6.421V35.848H7.367l-12.973-24h-.088v24h-6.421V0Z" transform="translate(12.114)" fill="#fff"/>
  </g>
  <g id="Groupe_159" data-name="Groupe 159" transform="translate(0 0)" clip-path="url(#clip-path)">
    <g id="Groupe_158" data-name="Groupe 158" transform="translate(149.787 41.7)">
      <path id="Tracé_155" data-name="Tracé 155" d="M-19.524-16.422a10.162,10.162,0,0,0-2.643-3.087,10.985,10.985,0,0,0-3.08-1.682q-1.552-.528-2.424-.729-2.928-.853-4.74-1.406a15.945,15.945,0,0,1-2.839-1.1,3.23,3.23,0,0,1-1.376-1.2,3.611,3.611,0,0,1-.349-1.708,3.747,3.747,0,0,1,.438-1.907,4.1,4.1,0,0,1,1.114-1.256,4.139,4.139,0,0,1,1.506-.7,7.068,7.068,0,0,1,1.66-.2,10.221,10.221,0,0,1,2.338.251,5.235,5.235,0,0,1,1.9.853,4.25,4.25,0,0,1,1.331,1.657,6.848,6.848,0,0,1,.566,2.4h6.653a12.217,12.217,0,0,0-1.016-5.035,9.972,9.972,0,0,0-2.773-3.59,11.043,11.043,0,0,0-4-2.032,17.377,17.377,0,0,0-4.7-.628,14.09,14.09,0,0,0-4.194.652A11.118,11.118,0,0,0-39.9-34.873a10.3,10.3,0,0,0-2.686,3.389,10.518,10.518,0,0,0-1.027,4.8,9.862,9.862,0,0,0,.807,4.191,8.684,8.684,0,0,0,2.12,2.888,11.3,11.3,0,0,0,2.969,1.883A27.031,27.031,0,0,0-34.311-16.5q1.7.552,3.364,1a19.245,19.245,0,0,1,2.969,1.054,6.375,6.375,0,0,1,2.12,1.507,3.41,3.41,0,0,1,.807,2.359,3.812,3.812,0,0,1-.611,2.235A4.433,4.433,0,0,1-27.19-6.957a6.2,6.2,0,0,1-1.966.678,11.932,11.932,0,0,1-1.966.175,9.106,9.106,0,0,1-2.62-.377,6.177,6.177,0,0,1-2.207-1.154,5.57,5.57,0,0,1-1.507-2.034,6.377,6.377,0,0,1-.474-1.761h-6.693a12.454,12.454,0,0,0,1.009,4.421,10.994,10.994,0,0,0,2.949,3.967,11.915,11.915,0,0,0,4.28,2.285,17.348,17.348,0,0,0,5,.727A16.89,16.89,0,0,0-25.77-.882a11.378,11.378,0,0,0,4.062-2.384,9.862,9.862,0,0,0,2.469-3.64,12.394,12.394,0,0,0,.829-4.568,9.831,9.831,0,0,0-1.113-4.946" transform="translate(44.623 37.534)" fill="#fff"/>
    </g>
  </g>
</svg>
